<svg id="visual" viewBox="0 0 900 600" width="900" height="600" xmlns="http://www.w3.org/2000/svg" xmlns:xlink="http://www.w3.org/1999/xlink" version="1.1"><rect x="0" y="0" width="900" height="600" fill="#5F6C37"></rect><defs><linearGradient id="grad1_0" x1="33.3%" y1="0%" x2="100%" y2="100%"><stop offset="20%" stop-color="#5f6c37" stop-opacity="1"></stop><stop offset="80%" stop-color="#5f6c37" stop-opacity="1"></stop></linearGradient></defs><defs><linearGradient id="grad2_0" x1="0%" y1="0%" x2="66.7%" y2="100%"><stop offset="20%" stop-color="#5f6c37" stop-opacity="1"></stop><stop offset="80%" stop-color="#5f6c37" stop-opacity="1"></stop></linearGradient></defs><g transform="translate(900, 0)"><path d="M0 378.6C-39.7 375.9 -79.5 373.2 -117 360.1C-154.5 346.9 -189.9 323.3 -209.3 288C-228.6 252.7 -232.1 205.7 -234.6 170.5C-237.1 135.2 -238.7 111.7 -262.5 85.3C-286.3 58.8 -332.5 29.4 -378.6 0L0 0Z" fill="#4E582D"></path></g><g transform="translate(0, 600)"><path d="M0 -378.6C34.5 -364.7 69 -350.8 111.9 -344.3C154.7 -337.8 206 -338.7 222.5 -306.3C239 -273.8 220.8 -208 237.9 -172.8C254.9 -137.6 307.3 -133.1 336.7 -109.4C366 -85.7 372.3 -42.8 378.6 0L0 0Z" fill="#4E582D"></path></g></svg>