<svg id="visual" viewBox="0 0 900 600" width="900" height="600" xmlns="http://www.w3.org/2000/svg" xmlns:xlink="http://www.w3.org/1999/xlink" version="1.1"><rect x="0" y="0" width="900" height="600" fill="#4E582D"></rect><path d="M0 471L8.8 482.7C17.7 494.3 35.3 517.7 53 518.8C70.7 520 88.3 499 106 490.5C123.7 482 141.3 486 159 493.2C176.7 500.3 194.3 510.7 212 518.3C229.7 526 247.3 531 265 529C282.7 527 300.3 518 318 506.5C335.7 495 353.3 481 371 487.2C388.7 493.3 406.3 519.7 423.8 523C441.3 526.3 458.7 506.7 476.2 507.7C493.7 508.7 511.3 530.3 529 532.5C546.7 534.7 564.3 517.3 582 509.3C599.7 501.3 617.3 502.7 635 511.3C652.7 520 670.3 536 688 535.7C705.7 535.3 723.3 518.7 741 518.8C758.7 519 776.3 536 794 538.7C811.7 541.3 829.3 529.7 847 529.8C864.7 530 882.3 542 891.2 548L900 554L900 601L891.2 601C882.3 601 864.7 601 847 601C829.3 601 811.7 601 794 601C776.3 601 758.7 601 741 601C723.3 601 705.7 601 688 601C670.3 601 652.7 601 635 601C617.3 601 599.7 601 582 601C564.3 601 546.7 601 529 601C511.3 601 493.7 601 476.2 601C458.7 601 441.3 601 423.8 601C406.3 601 388.7 601 371 601C353.3 601 335.7 601 318 601C300.3 601 282.7 601 265 601C247.3 601 229.7 601 212 601C194.3 601 176.7 601 159 601C141.3 601 123.7 601 106 601C88.3 601 70.7 601 53 601C35.3 601 17.7 601 8.8 601L0 601Z" fill="#5F6C37" stroke-linecap="round" stroke-linejoin="miter"></path></svg>